<svg id="Layer_1" data-name="Layer 1" xmlns="http://www.w3.org/2000/svg" xmlns:xlink="http://www.w3.org/1999/xlink" viewBox="0 0 1800 512"><defs><style>.cls-1,.cls-11{fill:none;}.cls-2{fill:#b0b2b5;}.cls-3{fill:#898b8d;}.cls-10,.cls-11,.cls-12,.cls-4,.cls-6,.cls-8,.cls-9{stroke:#000;}.cls-10,.cls-11,.cls-4,.cls-6,.cls-7,.cls-8,.cls-9{stroke-linecap:round;stroke-linejoin:round;}.cls-11,.cls-12,.cls-4,.cls-6,.cls-7,.cls-8,.cls-9{stroke-width:8px;}.cls-4{fill:url(#New_Pattern_Swatch_14);}.cls-5{fill:#00adee;}.cls-13,.cls-6{fill:#ffdc94;}.cls-7,.cls-8{fill:#f89e1c;}.cls-7{stroke:#0e0808;}.cls-9{fill:#fdc164;}.cls-10,.cls-14{fill:#fff;}.cls-10{stroke-width:12.6px;}.cls-12{fill:#fcb415;}.cls-12,.cls-15{stroke-miterlimit:10;}.cls-15{fill:url(#New_Pattern_Swatch_2);stroke:url(#New_Pattern_Swatch_2);}</style><pattern id="New_Pattern_Swatch_14" data-name="New Pattern Swatch 14" width="100" height="100" patternTransform="translate(-134 -63)" patternUnits="userSpaceOnUse" viewBox="0 0 100 100"><rect class="cls-1" width="100" height="100"/><rect class="cls-2" width="100" height="100"/></pattern><pattern id="New_Pattern_Swatch_2" data-name="New Pattern Swatch 2" width="100" height="100" patternUnits="userSpaceOnUse" viewBox="0 0 100 100"><rect class="cls-1" width="100" height="100"/><rect class="cls-3" width="100" height="100"/></pattern></defs><title>Artboard 1</title><polygon class="cls-4" points="1210.25 194.58 1210.25 169.39 1347.93 126.32 1379.16 89.72 1492.56 89.72 1462.77 128.92 1417.85 128.92 1409.16 147.81 1433.1 194.58 1210.25 194.58"/><circle class="cls-5" cx="463.57" cy="174.26" r="4.17"/><circle class="cls-5" cx="588.76" cy="156.73" r="4.17"/><circle class="cls-5" cx="750.47" cy="191.78" r="5.22"/><circle class="cls-5" cx="693.71" cy="352.03" r="5.22"/><circle class="cls-5" cx="899.24" cy="83.28" r="4.17" transform="translate(-3.67 101.07) rotate(-6.42)"/><circle class="cls-5" cx="992.43" cy="341.03" r="4.17" transform="translate(-31.91 113.1) rotate(-6.42)"/><circle class="cls-5" cx="881.87" cy="306.43" r="4.17" transform="translate(-28.73 100.52) rotate(-6.42)"/><circle class="cls-5" cx="241.57" cy="151.72" r="4.17" transform="translate(-15.45 27.96) rotate(-6.42)"/><circle class="cls-5" cx="1115.32" cy="94.62" r="4.17"/><circle class="cls-5" cx="1428.28" cy="325.17" r="4.17" transform="translate(-35.89 281.21) rotate(-11.11)"/><circle class="cls-5" cx="1293.92" cy="326.64" r="4.17"/><circle class="cls-5" cx="1380.33" cy="199.79" r="5.22"/><path class="cls-4" d="M625.16,334.15l43.93,89.56H911.4s121.76-102,228.59-126.48C1140,297.23,705,285.48,625.16,334.15Z"/><rect class="cls-6" x="190.25" y="154.72" width="173" height="64"/><rect class="cls-7" x="363.25" y="154.72" width="167" height="64"/><rect class="cls-8" x="530.25" y="154.72" width="174" height="64"/><rect class="cls-8" x="704.25" y="154.72" width="167" height="64"/><rect class="cls-9" x="871.25" y="154.72" width="168" height="64"/><rect class="cls-8" x="1039.25" y="154.72" width="171" height="64"/><rect class="cls-9" x="871.25" y="96.72" width="168" height="58"/><path class="cls-10" d="M236.13,173.78l47.31,21.61H1430.89c-28.95,18.56-54.95,41.72-83,67.13l-46.79,41.27C632.39,303.79,326,473,326,473,122.31,431.76,72.57,173.78,72.57,173.78Z"/><rect class="cls-9" x="190.25" y="96.72" width="173" height="58"/><rect class="cls-8" x="363.25" y="96.72" width="167" height="58"/><rect class="cls-9" x="530.25" y="96.72" width="174" height="58"/><rect class="cls-9" x="704.25" y="96.72" width="167" height="58"/><rect class="cls-6" x="1039.25" y="96.72" width="171" height="58"/><rect class="cls-8" x="704.25" y="35.72" width="167" height="61"/><rect class="cls-6" x="871.25" y="35.72" width="168" height="61"/><rect class="cls-6" x="1039.25" y="35.72" width="171" height="61"/><line class="cls-11" x1="662.47" y1="230.72" x2="146.87" y2="230.72"/><line class="cls-11" x1="1319.25" y1="230.72" x2="1191.25" y2="230.72"/><path class="cls-12" d="M1215.24,295.57l-5.54,26v.11l5.54,26S1272.53,449.3,1402.72,405s114.56-83.32,327.75-83.32v-.11c-213.19,0-197.56-39.06-327.75-83.32S1215.24,295.57,1215.24,295.57Z"/><path class="cls-13" d="M1467.3,321.66c.19-.13-189.34-127.85-265-.22v.44C1278,449.51,1467.49,321.79,1467.3,321.66Z"/><path class="cls-14" d="M1211.57,312.88l-1.86,8.76v0l1.86,8.76s19.27,34.16,63.07,19.27,38.54-28,110.26-28v0c-71.72,0-66.46-13.14-110.26-28S1211.57,312.88,1211.57,312.88Z"/><path class="cls-10" d="M1052.11,358.89H1219V284.43H1052.11c-16.68,0-30.2,16.5-30.2,36.86V322C1021.91,342.39,1035.43,358.89,1052.11,358.89Z"/><path class="cls-15" d="M209.35,268.39h4.59l12.2,35.86h-4.59l-3.41-10.8H204.93l-3.5,10.8h-4.29Zm-3.1,21h10.58l-5.2-16.73h-.09Z"/><path class="cls-15" d="M243.72,268.39h5.68l9.84,30.14,9.88-30.14h5.68v35.86h-3.94V274.42h-.09L261,304.25h-3.54l-9.75-29.83h-.09v29.83h-3.94Z"/><path class="cls-15" d="M304.63,268.39h4.59l12.2,35.86h-4.59l-3.41-10.8H300.22l-3.5,10.8h-4.29Zm-3.1,21h10.58l-5.2-16.73h-.09Z"/><path class="cls-15" d="M336.47,300.23l19.42-27.83H338v-4h22.83v4l-19.37,27.83h19.9v4H336.47Z"/><path class="cls-15" d="M393.27,267.53c9.93,0,15,9,15,18.78s-5,18.78-15,18.78-15-9-15-18.78S383.35,267.53,393.27,267.53Zm0,33.55c7.61,0,10.8-7.53,10.8-14.77s-3.19-14.77-10.8-14.77-10.8,7.53-10.8,14.77S385.67,301.09,393.27,301.09Z"/><path class="cls-15" d="M427.69,268.39h4.42l16.44,29.08h.09V268.39h3.94v35.86H448l-16.31-28.78h-.09v28.78h-3.94Z"/><path d="M498.27,268.39h23.35V275H505.14v7.68h15.13v6.13H505.14v8.79H522v6.63h-23.7Z"/><path d="M561.85,280.44a7,7,0,0,0-6.82-6.28c-6.17,0-8.48,6-8.48,12.31,0,6,2.32,12,8.48,12,4.2,0,6.56-3.31,7.08-8h6.65c-.7,8.94-6.08,14.67-13.73,14.67-9.66,0-15.35-8.29-15.35-18.63,0-10.65,5.68-18.94,15.35-18.94,6.87,0,12.64,4.62,13.47,12.91Z"/><path d="M592.55,292.35c0,4.77,3.24,6.63,6.91,6.63,2.4,0,6.08-.8,6.08-4.47,0-3.87-4.68-4.52-9.27-5.93s-9.31-3.47-9.31-10.2c0-7.33,6-10.85,11.68-10.85,6.52,0,12.51,3.26,12.51,11.55h-6.65c-.22-4.32-2.89-5.42-6.17-5.42-2.19,0-4.72,1.05-4.72,4.07,0,2.76,1.49,3.11,9.31,5.42,2.27.65,9.27,2.31,9.27,10.45,0,6.58-4.5,11.5-13,11.5-6.91,0-13.38-3.92-13.29-12.76Z"/><path class="cls-1" d="M1433.46,218.27a6.87,6.87,0,0,0,1.36,12.09c26.83,10.46,46.86,20.44,65,29.5,52,25.91,86.3,43,229.56,43h13.13a6.87,6.87,0,0,1,6.87,6.87v26.38a6.87,6.87,0,0,1-6.87,6.87h-13.13c-143.26,0-177.59,17.12-229.55,43-23.74,11.84-50.65,25.25-91.76,39.23-23.88,8.12-47.24,12.24-69.41,12.24h0c-34.39,0-65.93-9.64-93.76-28.64a174.68,174.68,0,0,1-30.38-26.45,6.85,6.85,0,0,0-5.07-2.24H1051.07c-8.64,0-17.29-2.18-24.39-7.11a6.84,6.84,0,0,0-7.44-.25,863.73,863.73,0,0,0-96,67.52l-3.66,3.06a6.87,6.87,0,0,1-4.41,1.6H659.87a6.87,6.87,0,0,1-6.17-3.84l-21-42.88a6.87,6.87,0,0,0-7.72-3.67c-194.48,45.25-289.37,96.67-290.34,97.21l-4.22,2.32a6.87,6.87,0,0,1-4.66.71l-4.74-1c-50-10.13-95.42-33.31-134.95-68.9-31.16-28.05-58.67-63.8-81.76-106.23-38.93-71.56-51.87-137.16-52.4-139.92l-.52-2.68a17.74,17.74,0,0,1,17.42-21.1h93.56a6.87,6.87,0,0,0,6.87-6.87V96.83A18.83,18.83,0,0,1,188,78H676.35a6.87,6.87,0,0,0,6.87-6.87V35.75A18.74,18.74,0,0,1,702,17H1209a20.2,20.2,0,0,1,20.2,20.2v97.27a6.87,6.87,0,0,0,9,6.54l94.5-30.31a6.87,6.87,0,0,0,3.18-2.15l29.63-35.61a8.15,8.15,0,0,1,6.26-2.94H1495a17.59,17.59,0,0,1,14.13,28.07l-36.43,49.15a6.87,6.87,0,0,1-5.52,2.78h-25.9a6.87,6.87,0,0,0-6.11,10l17.22,33.79c3.08,6,3.67,8.64-2.66,13.24h0c-1.12.82-8.8,6.18-16.24,11.23h0"/></svg>